#N canvas 12 0 1585 808 10;
#X obj 359 34 notein;
#X obj 207 227 mtof;
#X obj 829 459 osc~;
#X obj 397 463 osc~;
#X obj 346 81 stripnote;
#X obj 1207 443 *~ 0.2;
#X obj 1329 665 dac~;
#X obj 389 280 / 32;
#X obj 1328 473 bob~;
#X obj 1290 356 mtof;
#X obj 1290 416 pack 0 50;
#X obj 1290 445 line~;
#X obj 1362 416 line~;
#X obj 1155 204 ctlin 74;
#X obj 1237 204 ctlin 71;
#X obj 250 34 bendin, f 7;
#X obj 316 152 +;
#X obj 316 120 bng 15 250 50 0 empty empty empty 17 7 0 10 -262144
-1 -1;
#X obj 959 34 ctlin 123;
#X msg 959 108 0;
#X obj 1328 628 *~;
#X obj 830 527 throw~ gen;
#X obj 1175 391 catch~ gen;
#X obj 634 463 osc~;
#X obj 634 280 / 32;
#X obj 105 343 osc~;
#X obj 65 202 ctlin 1;
#X obj 325 227 ctlin 22;
#X obj 406 227 ctlin 23;
#X obj 138 203 ctlin 16;
#X obj 140 266 mtof;
#X obj 67 263 * 0.32;
#X obj 105 389 +~;
#X obj 105 366 *~ 0;
#X obj 1040 72 select 0;
#X obj 920 109 bng 15 250 50 0 empty empty empty 17 7 0 10 -262144
-1 -1;
#X msg 1040 107 -1;
#X obj 1040 150 +;
#X msg 1085 107 1;
#X obj 1008 248 select 0;
#X msg 1008 278 0 100;
#X obj 1103 446 line 0 1;
#X msg 1053 278 1 10;
#X obj 469 280 - 64;
#X obj 469 307 / 4096;
#X obj 454 374 +;
#X obj 454 344 bng 15 250 50 0 empty empty empty 17 7 0 10 -262144
-1 -1;
#X obj 714 280 - 64;
#X obj 714 307 / 4096;
#X obj 699 374 +;
#X obj 699 344 bng 15 250 50 0 empty empty empty 17 7 0 10 -262144
-1 -1;
#X obj 731 227 ctlin 27;
#X obj 556 34 loadbang;
#X msg 481 132 32;
#X msg 556 131 64;
#X msg 630 135 127;
#X obj 1328 592 *~;
#X floatatom 1290 388 7 0 0 0 - - -;
#X obj 1362 388 / 30;
#X obj 634 440 *~ 1;
#X obj 397 440 *~ 1;
#X obj 557 280 * 24;
#X obj 308 280 * 24;
#X obj 212 509 throw~ mod_gen;
#X obj 20 509 throw~ mod_1;
#X obj 117 509 throw~ mod_2;
#X obj 397 414 catch~ mod_1;
#X obj 633 414 catch~ mod_2;
#X obj 830 432 catch~ mod_gen;
#X obj 396 551 throw~ mod_gen;
#X obj 633 551 throw~ mod_1;
#X obj 396 513 hip~ 32;
#X obj 634 513 hip~ 32;
#X obj 830 494 hip~ 32;
#X obj 1501 366 lop~ 32;
#X obj 106 425 lop~ 64;
#X obj 1008 213 int 0;
#X obj 1040 180 clip 0 127;
#X obj 397 486 *~;
#X obj 634 486 *~;
#X obj 308 307 lop~ 16;
#X obj 557 307 lop~ 16;
#X text 1229 183 Resonance;
#X text 1398 183 Expression;
#X text 1502 183 Volume;
#X text 937 11 All note off;
#X text 1167 183 Cutoff;
#X text 1198 159 FILTER;
#X text 1440 159 AMPLIFIER;
#X text 229 11 Pitch Bend;
#X text 372 11 Note;
#X text 53 185 Mod Wheel;
#X text 138 184 LFO Freq;
#X text 344 207 Rate;
#X text 490 207 Fr fine;
#X text 400 207 Fr coarse;
#X text 596 207 Rate;
#X text 737 207 Fr fine;
#X text 645 207 Fr coarse;
#X text 410 183 MODULATOR 1;
#X text 624 183 MODULATOR 2;
#X text 864 403 GENERATOR;
#X obj 485 227 ctlin 24;
#X obj 573 227 ctlin 25;
#X obj 651 227 ctlin 26;
#X obj 140 299 / 64;
#X obj 44 228 hsl 64 15 0 127 0 0 empty empty empty -2 -8 0 10 -203904
-4160 -1 0 1;
#X obj 123 228 hsl 64 15 0 127 0 0 empty empty empty -2 -8 0 10 -203904
-4160 -1 1587 1;
#X obj 311 252 hsl 64 15 0 127 0 0 empty empty empty -2 -8 0 10 -203904
-4160 -1 0 1;
#X obj 392 252 hsl 64 15 0 127 0 0 empty empty empty -2 -8 0 10 -203904
-4160 -1 1587 1;
#X obj 472 252 hsl 64 15 0 127 0 0 empty empty empty -2 -8 0 10 -203904
-4160 -1 3175 1;
#X obj 560 252 hsl 64 15 0 127 0 0 empty empty empty -2 -8 0 10 -203904
-4160 -1 0 1;
#X obj 637 252 hsl 64 15 0 127 0 0 empty empty empty -2 -8 0 10 -203904
-4160 -1 1587 1;
#X obj 717 253 hsl 64 15 0 127 0 0 empty empty empty -2 -8 0 10 -203904
-4160 -1 3175 1;
#X obj 1143 226 hsl 64 15 0 127 0 0 empty empty empty -2 -8 0 10 -203904
-4160 -1 6300 1;
#X obj 1224 226 hsl 64 15 0 127 0 0 empty empty empty -2 -8 0 10 -203904
-4160 -1 0 1;
#X obj 1397 226 hsl 64 15 0 127 0 0 empty empty empty -2 -8 0 10 -203904
-4160 -1 6300 1;
#X obj 1478 226 hsl 64 15 0 127 0 0 empty empty empty -2 -8 0 10 -203904
-4160 -1 6300 1;
#X obj 1443 267 + 1;
#X obj 1414 304 *;
#X obj 1519 267 + 1;
#X obj 1501 304 *;
#X obj 1329 529 *~;
#X obj 1414 366 lop~ 32;
#X obj 1414 335 / 16384;
#X obj 1501 334 / 16384;
#X obj 250 84 / 170.65;
#X obj 250 59 - 8192;
#X floatatom 486 374 5 0 0 0 - - -;
#X floatatom 730 374 5 0 0 0 - - -;
#X obj 1410 204 ctlin 11;
#X obj 1497 204 ctlin 7;
#X floatatom 1375 366 5 0 0 0 - - -;
#X floatatom 1465 366 5 0 0 0 - - -;
#X text 579 10 Init;
#X connect 0 0 4 0;
#X connect 0 1 4 1;
#X connect 0 1 34 0;
#X connect 0 1 35 0;
#X connect 1 0 32 1;
#X connect 2 0 73 0;
#X connect 3 0 78 0;
#X connect 4 0 16 1;
#X connect 4 0 17 0;
#X connect 5 0 8 0;
#X connect 7 0 45 0;
#X connect 8 0 122 0;
#X connect 9 0 57 0;
#X connect 10 0 11 0;
#X connect 11 0 8 1;
#X connect 12 0 8 2;
#X connect 13 0 114 0;
#X connect 14 0 115 0;
#X connect 15 0 127 0;
#X connect 16 0 1 0;
#X connect 17 0 16 0;
#X connect 18 0 19 0;
#X connect 19 0 76 0;
#X connect 20 0 6 0;
#X connect 20 0 6 1;
#X connect 22 0 5 0;
#X connect 23 0 79 0;
#X connect 24 0 49 0;
#X connect 25 0 33 0;
#X connect 26 0 106 0;
#X connect 27 0 108 0;
#X connect 28 0 109 0;
#X connect 29 0 107 0;
#X connect 30 0 105 0;
#X connect 31 0 33 1;
#X connect 32 0 75 0;
#X connect 33 0 32 0;
#X connect 34 0 36 0;
#X connect 34 1 38 0;
#X connect 35 0 76 0;
#X connect 36 0 37 0;
#X connect 37 0 77 0;
#X connect 38 0 37 0;
#X connect 39 0 40 0;
#X connect 39 1 42 0;
#X connect 40 0 41 0;
#X connect 41 0 20 1;
#X connect 42 0 41 0;
#X connect 43 0 44 0;
#X connect 44 0 45 1;
#X connect 44 0 46 0;
#X connect 45 0 60 1;
#X connect 45 0 128 0;
#X connect 46 0 45 0;
#X connect 47 0 48 0;
#X connect 48 0 49 1;
#X connect 48 0 50 0;
#X connect 49 0 59 1;
#X connect 49 0 129 0;
#X connect 50 0 49 0;
#X connect 51 0 113 0;
#X connect 52 0 53 0;
#X connect 52 0 54 0;
#X connect 52 0 55 0;
#X connect 53 0 112 0;
#X connect 53 0 109 0;
#X connect 53 0 107 0;
#X connect 54 0 113 0;
#X connect 54 0 110 0;
#X connect 55 0 116 0;
#X connect 55 0 117 0;
#X connect 55 0 114 0;
#X connect 56 0 20 0;
#X connect 57 0 10 0;
#X connect 58 0 12 0;
#X connect 59 0 23 0;
#X connect 60 0 3 0;
#X connect 61 0 81 0;
#X connect 62 0 80 0;
#X connect 66 0 60 0;
#X connect 67 0 59 0;
#X connect 68 0 2 0;
#X connect 71 0 69 0;
#X connect 72 0 70 0;
#X connect 73 0 21 0;
#X connect 74 0 56 1;
#X connect 75 0 63 0;
#X connect 75 0 64 0;
#X connect 75 0 65 0;
#X connect 76 0 37 1;
#X connect 76 0 39 0;
#X connect 77 0 76 1;
#X connect 78 0 71 0;
#X connect 79 0 72 0;
#X connect 80 0 78 1;
#X connect 81 0 79 1;
#X connect 102 0 110 0;
#X connect 103 0 111 0;
#X connect 104 0 112 0;
#X connect 105 0 25 0;
#X connect 106 0 31 0;
#X connect 107 0 30 0;
#X connect 108 0 62 0;
#X connect 109 0 7 0;
#X connect 110 0 43 0;
#X connect 111 0 61 0;
#X connect 112 0 24 0;
#X connect 113 0 47 0;
#X connect 114 0 9 0;
#X connect 115 0 58 0;
#X connect 116 0 118 0;
#X connect 116 0 119 0;
#X connect 117 0 120 0;
#X connect 117 0 121 0;
#X connect 118 0 119 1;
#X connect 119 0 124 0;
#X connect 120 0 121 1;
#X connect 121 0 125 0;
#X connect 122 0 56 0;
#X connect 123 0 122 1;
#X connect 124 0 123 0;
#X connect 124 0 132 0;
#X connect 125 0 74 0;
#X connect 125 0 133 0;
#X connect 126 0 16 0;
#X connect 127 0 126 0;
#X connect 130 0 116 0;
#X connect 131 0 117 0;
